<mxfile host="Electron" modified="2024-03-16T17:58:15.556Z" agent="Mozilla/5.0 (Windows NT 10.0; Win64; x64) AppleWebKit/537.36 (KHTML, like Gecko) draw.io/23.1.5 Chrome/120.0.6099.109 Electron/28.1.0 Safari/537.36" etag="5Gm9UU77LVuUqENNf_MC" version="23.1.5" type="device">
  <diagram id="C5RBs43oDa-KdzZeNtuy" name="Page-1">
    <mxGraphModel dx="1049" dy="1856" grid="1" gridSize="10" guides="1" tooltips="1" connect="1" arrows="1" fold="1" page="1" pageScale="1" pageWidth="827" pageHeight="1169" math="0" shadow="0">
      <root>
        <mxCell id="WIyWlLk6GJQsqaUBKTNV-0" />
        <mxCell id="WIyWlLk6GJQsqaUBKTNV-1" parent="WIyWlLk6GJQsqaUBKTNV-0" />
        <mxCell id="s1uLl0sVC5fE9_Em1BIi-4" value="" style="edgeStyle=orthogonalEdgeStyle;rounded=0;orthogonalLoop=1;jettySize=auto;html=1;" parent="WIyWlLk6GJQsqaUBKTNV-1" source="s1uLl0sVC5fE9_Em1BIi-0" target="s1uLl0sVC5fE9_Em1BIi-3" edge="1">
          <mxGeometry relative="1" as="geometry" />
        </mxCell>
        <mxCell id="s1uLl0sVC5fE9_Em1BIi-0" value="Просмотреть главную страницу" style="rounded=1;whiteSpace=wrap;html=1;" parent="WIyWlLk6GJQsqaUBKTNV-1" vertex="1">
          <mxGeometry x="254" y="70" width="120" height="60" as="geometry" />
        </mxCell>
        <mxCell id="ptNgoOlfAMFUyv-kNt-q-25" style="edgeStyle=orthogonalEdgeStyle;rounded=0;orthogonalLoop=1;jettySize=auto;html=1;" edge="1" parent="WIyWlLk6GJQsqaUBKTNV-1" source="s1uLl0sVC5fE9_Em1BIi-1" target="s1uLl0sVC5fE9_Em1BIi-15">
          <mxGeometry relative="1" as="geometry">
            <Array as="points">
              <mxPoint x="250" y="430" />
              <mxPoint x="290" y="430" />
            </Array>
          </mxGeometry>
        </mxCell>
        <mxCell id="s1uLl0sVC5fE9_Em1BIi-1" value="Создать путешествие по кнопке" style="whiteSpace=wrap;html=1;rounded=1;" parent="WIyWlLk6GJQsqaUBKTNV-1" vertex="1">
          <mxGeometry x="190" y="340" width="120" height="60" as="geometry" />
        </mxCell>
        <mxCell id="ptNgoOlfAMFUyv-kNt-q-23" style="edgeStyle=orthogonalEdgeStyle;rounded=0;orthogonalLoop=1;jettySize=auto;html=1;" edge="1" parent="WIyWlLk6GJQsqaUBKTNV-1" source="s1uLl0sVC5fE9_Em1BIi-3" target="ptNgoOlfAMFUyv-kNt-q-19">
          <mxGeometry relative="1" as="geometry" />
        </mxCell>
        <mxCell id="s1uLl0sVC5fE9_Em1BIi-3" value="Посмотреть страницу опубликованных поездок" style="whiteSpace=wrap;html=1;rounded=1;" parent="WIyWlLk6GJQsqaUBKTNV-1" vertex="1">
          <mxGeometry x="254" y="170" width="120" height="60" as="geometry" />
        </mxCell>
        <mxCell id="s1uLl0sVC5fE9_Em1BIi-12" value="" style="edgeStyle=orthogonalEdgeStyle;rounded=0;orthogonalLoop=1;jettySize=auto;html=1;" parent="WIyWlLk6GJQsqaUBKTNV-1" source="s1uLl0sVC5fE9_Em1BIi-6" target="s1uLl0sVC5fE9_Em1BIi-11" edge="1">
          <mxGeometry relative="1" as="geometry" />
        </mxCell>
        <mxCell id="s1uLl0sVC5fE9_Em1BIi-6" value="" style="rhombus;whiteSpace=wrap;html=1;" parent="WIyWlLk6GJQsqaUBKTNV-1" vertex="1">
          <mxGeometry x="270" y="550" width="80" height="80" as="geometry" />
        </mxCell>
        <mxCell id="s1uLl0sVC5fE9_Em1BIi-8" value="Пользователь&amp;nbsp;&lt;br&gt;авторизован" style="text;html=1;align=center;verticalAlign=middle;resizable=0;points=[];autosize=1;strokeColor=none;fillColor=none;" parent="WIyWlLk6GJQsqaUBKTNV-1" vertex="1">
          <mxGeometry x="310" y="490" width="100" height="40" as="geometry" />
        </mxCell>
        <mxCell id="s1uLl0sVC5fE9_Em1BIi-10" value="Да" style="text;html=1;align=center;verticalAlign=middle;resizable=0;points=[];autosize=1;strokeColor=none;fillColor=none;" parent="WIyWlLk6GJQsqaUBKTNV-1" vertex="1">
          <mxGeometry x="320" y="620" width="40" height="30" as="geometry" />
        </mxCell>
        <mxCell id="s1uLl0sVC5fE9_Em1BIi-21" value="" style="edgeStyle=orthogonalEdgeStyle;rounded=0;orthogonalLoop=1;jettySize=auto;html=1;" parent="WIyWlLk6GJQsqaUBKTNV-1" source="s1uLl0sVC5fE9_Em1BIi-11" target="s1uLl0sVC5fE9_Em1BIi-22" edge="1">
          <mxGeometry relative="1" as="geometry">
            <mxPoint x="610" y="590" as="targetPoint" />
          </mxGeometry>
        </mxCell>
        <mxCell id="s1uLl0sVC5fE9_Em1BIi-11" value="Перейти на экран авторизации" style="rounded=1;whiteSpace=wrap;html=1;" parent="WIyWlLk6GJQsqaUBKTNV-1" vertex="1">
          <mxGeometry x="420" y="560" width="120" height="60" as="geometry" />
        </mxCell>
        <mxCell id="s1uLl0sVC5fE9_Em1BIi-13" value="Нет" style="text;html=1;align=center;verticalAlign=middle;resizable=0;points=[];autosize=1;strokeColor=none;fillColor=none;rotation=0;" parent="WIyWlLk6GJQsqaUBKTNV-1" vertex="1">
          <mxGeometry x="360" y="560" width="40" height="30" as="geometry" />
        </mxCell>
        <mxCell id="s1uLl0sVC5fE9_Em1BIi-19" style="edgeStyle=orthogonalEdgeStyle;rounded=0;orthogonalLoop=1;jettySize=auto;html=1;" parent="WIyWlLk6GJQsqaUBKTNV-1" source="s1uLl0sVC5fE9_Em1BIi-15" target="s1uLl0sVC5fE9_Em1BIi-6" edge="1">
          <mxGeometry relative="1" as="geometry">
            <Array as="points">
              <mxPoint x="310" y="520" />
              <mxPoint x="310" y="520" />
            </Array>
          </mxGeometry>
        </mxCell>
        <mxCell id="s1uLl0sVC5fE9_Em1BIi-15" value="" style="shape=line;html=1;strokeWidth=6;strokeColor=#ff0000;" parent="WIyWlLk6GJQsqaUBKTNV-1" vertex="1">
          <mxGeometry x="254" y="460" width="116" height="10" as="geometry" />
        </mxCell>
        <mxCell id="s1uLl0sVC5fE9_Em1BIi-25" value="" style="edgeStyle=orthogonalEdgeStyle;rounded=0;orthogonalLoop=1;jettySize=auto;html=1;" parent="WIyWlLk6GJQsqaUBKTNV-1" source="s1uLl0sVC5fE9_Em1BIi-22" target="s1uLl0sVC5fE9_Em1BIi-24" edge="1">
          <mxGeometry relative="1" as="geometry" />
        </mxCell>
        <mxCell id="s1uLl0sVC5fE9_Em1BIi-37" style="edgeStyle=orthogonalEdgeStyle;rounded=0;orthogonalLoop=1;jettySize=auto;html=1;" parent="WIyWlLk6GJQsqaUBKTNV-1" source="s1uLl0sVC5fE9_Em1BIi-22" target="s1uLl0sVC5fE9_Em1BIi-34" edge="1">
          <mxGeometry relative="1" as="geometry" />
        </mxCell>
        <mxCell id="s1uLl0sVC5fE9_Em1BIi-22" value="" style="strokeWidth=2;html=1;shape=mxgraph.flowchart.decision;whiteSpace=wrap;" parent="WIyWlLk6GJQsqaUBKTNV-1" vertex="1">
          <mxGeometry x="650" y="540" width="100" height="100" as="geometry" />
        </mxCell>
        <mxCell id="s1uLl0sVC5fE9_Em1BIi-23" value="Пользователь &lt;br&gt;зарегестрирован&lt;br&gt;&amp;nbsp;в системе" style="text;html=1;align=center;verticalAlign=middle;resizable=0;points=[];autosize=1;strokeColor=none;fillColor=none;" parent="WIyWlLk6GJQsqaUBKTNV-1" vertex="1">
          <mxGeometry x="540" y="525" width="120" height="60" as="geometry" />
        </mxCell>
        <mxCell id="s1uLl0sVC5fE9_Em1BIi-30" style="edgeStyle=orthogonalEdgeStyle;rounded=0;orthogonalLoop=1;jettySize=auto;html=1;" parent="WIyWlLk6GJQsqaUBKTNV-1" source="s1uLl0sVC5fE9_Em1BIi-24" target="s1uLl0sVC5fE9_Em1BIi-29" edge="1">
          <mxGeometry relative="1" as="geometry">
            <Array as="points">
              <mxPoint x="880" y="740" />
            </Array>
          </mxGeometry>
        </mxCell>
        <mxCell id="s1uLl0sVC5fE9_Em1BIi-24" value="Регистрация пользователя" style="rounded=1;whiteSpace=wrap;html=1;strokeWidth=2;" parent="WIyWlLk6GJQsqaUBKTNV-1" vertex="1">
          <mxGeometry x="820" y="560" width="120" height="60" as="geometry" />
        </mxCell>
        <mxCell id="s1uLl0sVC5fE9_Em1BIi-26" value="Нет" style="text;html=1;align=center;verticalAlign=middle;resizable=0;points=[];autosize=1;strokeColor=none;fillColor=none;" parent="WIyWlLk6GJQsqaUBKTNV-1" vertex="1">
          <mxGeometry x="760" y="558" width="40" height="30" as="geometry" />
        </mxCell>
        <mxCell id="s1uLl0sVC5fE9_Em1BIi-32" style="edgeStyle=orthogonalEdgeStyle;rounded=0;orthogonalLoop=1;jettySize=auto;html=1;" parent="WIyWlLk6GJQsqaUBKTNV-1" source="s1uLl0sVC5fE9_Em1BIi-29" target="s1uLl0sVC5fE9_Em1BIi-24" edge="1">
          <mxGeometry relative="1" as="geometry">
            <Array as="points">
              <mxPoint x="1040" y="740" />
              <mxPoint x="1040" y="590" />
            </Array>
          </mxGeometry>
        </mxCell>
        <mxCell id="s1uLl0sVC5fE9_Em1BIi-35" value="" style="edgeStyle=orthogonalEdgeStyle;rounded=0;orthogonalLoop=1;jettySize=auto;html=1;" parent="WIyWlLk6GJQsqaUBKTNV-1" source="s1uLl0sVC5fE9_Em1BIi-29" target="s1uLl0sVC5fE9_Em1BIi-34" edge="1">
          <mxGeometry relative="1" as="geometry">
            <Array as="points">
              <mxPoint x="950" y="800" />
            </Array>
          </mxGeometry>
        </mxCell>
        <mxCell id="s1uLl0sVC5fE9_Em1BIi-29" value="" style="strokeWidth=2;html=1;shape=mxgraph.flowchart.decision;whiteSpace=wrap;" parent="WIyWlLk6GJQsqaUBKTNV-1" vertex="1">
          <mxGeometry x="900" y="690" width="100" height="100" as="geometry" />
        </mxCell>
        <mxCell id="s1uLl0sVC5fE9_Em1BIi-31" value="Данные &lt;br&gt;введены &lt;br&gt;корректно" style="text;html=1;align=center;verticalAlign=middle;resizable=0;points=[];autosize=1;strokeColor=none;fillColor=none;" parent="WIyWlLk6GJQsqaUBKTNV-1" vertex="1">
          <mxGeometry x="870" y="643" width="80" height="60" as="geometry" />
        </mxCell>
        <mxCell id="s1uLl0sVC5fE9_Em1BIi-33" value="нет" style="text;html=1;align=center;verticalAlign=middle;resizable=0;points=[];autosize=1;strokeColor=none;fillColor=none;" parent="WIyWlLk6GJQsqaUBKTNV-1" vertex="1">
          <mxGeometry x="1040" y="643" width="40" height="30" as="geometry" />
        </mxCell>
        <mxCell id="s1uLl0sVC5fE9_Em1BIi-40" value="" style="edgeStyle=orthogonalEdgeStyle;rounded=0;orthogonalLoop=1;jettySize=auto;html=1;" parent="WIyWlLk6GJQsqaUBKTNV-1" source="s1uLl0sVC5fE9_Em1BIi-34" target="s1uLl0sVC5fE9_Em1BIi-41" edge="1">
          <mxGeometry relative="1" as="geometry">
            <mxPoint x="700" y="930" as="targetPoint" />
          </mxGeometry>
        </mxCell>
        <mxCell id="s1uLl0sVC5fE9_Em1BIi-34" value="Авторизация пользователя" style="rounded=1;whiteSpace=wrap;html=1;strokeWidth=2;" parent="WIyWlLk6GJQsqaUBKTNV-1" vertex="1">
          <mxGeometry x="640" y="790" width="120" height="60" as="geometry" />
        </mxCell>
        <mxCell id="s1uLl0sVC5fE9_Em1BIi-36" value="да" style="text;html=1;align=center;verticalAlign=middle;resizable=0;points=[];autosize=1;strokeColor=none;fillColor=none;" parent="WIyWlLk6GJQsqaUBKTNV-1" vertex="1">
          <mxGeometry x="880" y="790" width="40" height="30" as="geometry" />
        </mxCell>
        <mxCell id="s1uLl0sVC5fE9_Em1BIi-38" value="Да" style="text;html=1;align=center;verticalAlign=middle;resizable=0;points=[];autosize=1;strokeColor=none;fillColor=none;" parent="WIyWlLk6GJQsqaUBKTNV-1" vertex="1">
          <mxGeometry x="700" y="703" width="40" height="30" as="geometry" />
        </mxCell>
        <mxCell id="s1uLl0sVC5fE9_Em1BIi-43" style="edgeStyle=orthogonalEdgeStyle;rounded=0;orthogonalLoop=1;jettySize=auto;html=1;" parent="WIyWlLk6GJQsqaUBKTNV-1" source="s1uLl0sVC5fE9_Em1BIi-41" target="s1uLl0sVC5fE9_Em1BIi-34" edge="1">
          <mxGeometry relative="1" as="geometry">
            <Array as="points">
              <mxPoint x="840" y="980" />
              <mxPoint x="840" y="820" />
            </Array>
          </mxGeometry>
        </mxCell>
        <mxCell id="s1uLl0sVC5fE9_Em1BIi-50" style="edgeStyle=orthogonalEdgeStyle;rounded=0;orthogonalLoop=1;jettySize=auto;html=1;" parent="WIyWlLk6GJQsqaUBKTNV-1" source="s1uLl0sVC5fE9_Em1BIi-41" target="s1uLl0sVC5fE9_Em1BIi-47" edge="1">
          <mxGeometry relative="1" as="geometry">
            <Array as="points">
              <mxPoint x="580" y="980" />
              <mxPoint x="580" y="710" />
              <mxPoint x="328" y="710" />
            </Array>
          </mxGeometry>
        </mxCell>
        <mxCell id="s1uLl0sVC5fE9_Em1BIi-41" value="" style="strokeWidth=2;html=1;shape=mxgraph.flowchart.decision;whiteSpace=wrap;" parent="WIyWlLk6GJQsqaUBKTNV-1" vertex="1">
          <mxGeometry x="650" y="930" width="100" height="100" as="geometry" />
        </mxCell>
        <mxCell id="s1uLl0sVC5fE9_Em1BIi-42" value="Данные &lt;br&gt;введены &lt;br&gt;корректно" style="text;html=1;align=center;verticalAlign=middle;resizable=0;points=[];autosize=1;strokeColor=none;fillColor=none;" parent="WIyWlLk6GJQsqaUBKTNV-1" vertex="1">
          <mxGeometry x="690" y="870" width="80" height="60" as="geometry" />
        </mxCell>
        <mxCell id="s1uLl0sVC5fE9_Em1BIi-44" value="Нет" style="text;html=1;align=center;verticalAlign=middle;resizable=0;points=[];autosize=1;strokeColor=none;fillColor=none;" parent="WIyWlLk6GJQsqaUBKTNV-1" vertex="1">
          <mxGeometry x="760" y="960" width="40" height="30" as="geometry" />
        </mxCell>
        <mxCell id="s1uLl0sVC5fE9_Em1BIi-46" value="Да" style="text;html=1;align=center;verticalAlign=middle;resizable=0;points=[];autosize=1;strokeColor=none;fillColor=none;" parent="WIyWlLk6GJQsqaUBKTNV-1" vertex="1">
          <mxGeometry x="600" y="960" width="40" height="30" as="geometry" />
        </mxCell>
        <mxCell id="ptNgoOlfAMFUyv-kNt-q-28" style="edgeStyle=orthogonalEdgeStyle;rounded=0;orthogonalLoop=1;jettySize=auto;html=1;" edge="1" parent="WIyWlLk6GJQsqaUBKTNV-1" source="s1uLl0sVC5fE9_Em1BIi-47" target="ptNgoOlfAMFUyv-kNt-q-27">
          <mxGeometry relative="1" as="geometry">
            <Array as="points">
              <mxPoint x="290" y="790" />
              <mxPoint x="239" y="790" />
            </Array>
          </mxGeometry>
        </mxCell>
        <mxCell id="ptNgoOlfAMFUyv-kNt-q-29" style="edgeStyle=orthogonalEdgeStyle;rounded=0;orthogonalLoop=1;jettySize=auto;html=1;" edge="1" parent="WIyWlLk6GJQsqaUBKTNV-1" source="s1uLl0sVC5fE9_Em1BIi-47" target="ptNgoOlfAMFUyv-kNt-q-3">
          <mxGeometry relative="1" as="geometry">
            <Array as="points">
              <mxPoint x="340" y="790" />
              <mxPoint x="389" y="790" />
            </Array>
          </mxGeometry>
        </mxCell>
        <mxCell id="s1uLl0sVC5fE9_Em1BIi-47" value="" style="shape=line;html=1;strokeWidth=6;strokeColor=#ff0000;" parent="WIyWlLk6GJQsqaUBKTNV-1" vertex="1">
          <mxGeometry x="260" y="760" width="116" height="10" as="geometry" />
        </mxCell>
        <mxCell id="s1uLl0sVC5fE9_Em1BIi-49" style="edgeStyle=orthogonalEdgeStyle;rounded=0;orthogonalLoop=1;jettySize=auto;html=1;" parent="WIyWlLk6GJQsqaUBKTNV-1" source="s1uLl0sVC5fE9_Em1BIi-6" target="s1uLl0sVC5fE9_Em1BIi-47" edge="1">
          <mxGeometry relative="1" as="geometry">
            <Array as="points">
              <mxPoint x="310" y="730" />
              <mxPoint x="310" y="730" />
            </Array>
          </mxGeometry>
        </mxCell>
        <mxCell id="ptNgoOlfAMFUyv-kNt-q-35" style="edgeStyle=orthogonalEdgeStyle;rounded=0;orthogonalLoop=1;jettySize=auto;html=1;" edge="1" parent="WIyWlLk6GJQsqaUBKTNV-1" source="s1uLl0sVC5fE9_Em1BIi-59" target="ptNgoOlfAMFUyv-kNt-q-30">
          <mxGeometry relative="1" as="geometry" />
        </mxCell>
        <mxCell id="s1uLl0sVC5fE9_Em1BIi-59" value="Настроить траты" style="whiteSpace=wrap;html=1;rounded=1;" parent="WIyWlLk6GJQsqaUBKTNV-1" vertex="1">
          <mxGeometry x="254" y="1050" width="120" height="60" as="geometry" />
        </mxCell>
        <mxCell id="ptNgoOlfAMFUyv-kNt-q-40" style="edgeStyle=orthogonalEdgeStyle;rounded=0;orthogonalLoop=1;jettySize=auto;html=1;" edge="1" parent="WIyWlLk6GJQsqaUBKTNV-1" source="s1uLl0sVC5fE9_Em1BIi-69" target="s1uLl0sVC5fE9_Em1BIi-71">
          <mxGeometry relative="1" as="geometry" />
        </mxCell>
        <mxCell id="s1uLl0sVC5fE9_Em1BIi-69" value="Выйти из системы" style="whiteSpace=wrap;html=1;rounded=1;" parent="WIyWlLk6GJQsqaUBKTNV-1" vertex="1">
          <mxGeometry x="254" y="1320" width="120" height="60" as="geometry" />
        </mxCell>
        <mxCell id="s1uLl0sVC5fE9_Em1BIi-71" value="" style="ellipse;html=1;shape=endState;fillColor=#000000;strokeColor=#ff0000;" parent="WIyWlLk6GJQsqaUBKTNV-1" vertex="1">
          <mxGeometry x="299" y="1420" width="30" height="30" as="geometry" />
        </mxCell>
        <mxCell id="s1uLl0sVC5fE9_Em1BIi-75" style="edgeStyle=orthogonalEdgeStyle;rounded=0;orthogonalLoop=1;jettySize=auto;html=1;" parent="WIyWlLk6GJQsqaUBKTNV-1" source="s1uLl0sVC5fE9_Em1BIi-73" target="s1uLl0sVC5fE9_Em1BIi-0" edge="1">
          <mxGeometry relative="1" as="geometry" />
        </mxCell>
        <mxCell id="s1uLl0sVC5fE9_Em1BIi-73" value="" style="ellipse;html=1;shape=startState;fillColor=#000000;strokeColor=#ff0000;" parent="WIyWlLk6GJQsqaUBKTNV-1" vertex="1">
          <mxGeometry x="299" y="10" width="30" height="30" as="geometry" />
        </mxCell>
        <mxCell id="ptNgoOlfAMFUyv-kNt-q-32" style="edgeStyle=orthogonalEdgeStyle;rounded=0;orthogonalLoop=1;jettySize=auto;html=1;" edge="1" parent="WIyWlLk6GJQsqaUBKTNV-1" source="ptNgoOlfAMFUyv-kNt-q-3" target="ptNgoOlfAMFUyv-kNt-q-6">
          <mxGeometry relative="1" as="geometry">
            <Array as="points">
              <mxPoint x="389" y="910" />
              <mxPoint x="340" y="910" />
            </Array>
          </mxGeometry>
        </mxCell>
        <mxCell id="ptNgoOlfAMFUyv-kNt-q-3" value="Перейти к сохраненному путешествию" style="rounded=1;whiteSpace=wrap;html=1;" vertex="1" parent="WIyWlLk6GJQsqaUBKTNV-1">
          <mxGeometry x="329" y="820" width="120" height="60" as="geometry" />
        </mxCell>
        <mxCell id="ptNgoOlfAMFUyv-kNt-q-10" style="edgeStyle=orthogonalEdgeStyle;rounded=0;orthogonalLoop=1;jettySize=auto;html=1;" edge="1" parent="WIyWlLk6GJQsqaUBKTNV-1" source="ptNgoOlfAMFUyv-kNt-q-6" target="ptNgoOlfAMFUyv-kNt-q-13">
          <mxGeometry relative="1" as="geometry" />
        </mxCell>
        <mxCell id="ptNgoOlfAMFUyv-kNt-q-6" value="" style="shape=line;html=1;strokeWidth=6;strokeColor=#ff0000;" vertex="1" parent="WIyWlLk6GJQsqaUBKTNV-1">
          <mxGeometry x="239" y="920" width="150" height="10" as="geometry" />
        </mxCell>
        <mxCell id="ptNgoOlfAMFUyv-kNt-q-34" style="edgeStyle=orthogonalEdgeStyle;rounded=0;orthogonalLoop=1;jettySize=auto;html=1;" edge="1" parent="WIyWlLk6GJQsqaUBKTNV-1" source="ptNgoOlfAMFUyv-kNt-q-13" target="s1uLl0sVC5fE9_Em1BIi-59">
          <mxGeometry relative="1" as="geometry" />
        </mxCell>
        <mxCell id="ptNgoOlfAMFUyv-kNt-q-36" style="edgeStyle=orthogonalEdgeStyle;rounded=0;orthogonalLoop=1;jettySize=auto;html=1;" edge="1" parent="WIyWlLk6GJQsqaUBKTNV-1" source="ptNgoOlfAMFUyv-kNt-q-13" target="ptNgoOlfAMFUyv-kNt-q-30">
          <mxGeometry relative="1" as="geometry">
            <Array as="points">
              <mxPoint x="210" y="990" />
              <mxPoint x="210" y="1170" />
            </Array>
          </mxGeometry>
        </mxCell>
        <mxCell id="ptNgoOlfAMFUyv-kNt-q-13" value="Посмотреть маршрут по кнопке" style="rounded=1;whiteSpace=wrap;html=1;" vertex="1" parent="WIyWlLk6GJQsqaUBKTNV-1">
          <mxGeometry x="254" y="960" width="120" height="60" as="geometry" />
        </mxCell>
        <mxCell id="ptNgoOlfAMFUyv-kNt-q-26" style="edgeStyle=orthogonalEdgeStyle;rounded=0;orthogonalLoop=1;jettySize=auto;html=1;" edge="1" parent="WIyWlLk6GJQsqaUBKTNV-1" source="ptNgoOlfAMFUyv-kNt-q-16" target="s1uLl0sVC5fE9_Em1BIi-15">
          <mxGeometry relative="1" as="geometry">
            <Array as="points">
              <mxPoint x="380" y="430" />
              <mxPoint x="330" y="430" />
            </Array>
          </mxGeometry>
        </mxCell>
        <mxCell id="ptNgoOlfAMFUyv-kNt-q-16" value="Перейти в личный кабинет по кнопке" style="whiteSpace=wrap;html=1;rounded=1;" vertex="1" parent="WIyWlLk6GJQsqaUBKTNV-1">
          <mxGeometry x="320" y="340" width="120" height="60" as="geometry" />
        </mxCell>
        <mxCell id="ptNgoOlfAMFUyv-kNt-q-21" style="edgeStyle=orthogonalEdgeStyle;rounded=0;orthogonalLoop=1;jettySize=auto;html=1;" edge="1" parent="WIyWlLk6GJQsqaUBKTNV-1" source="ptNgoOlfAMFUyv-kNt-q-19" target="s1uLl0sVC5fE9_Em1BIi-1">
          <mxGeometry relative="1" as="geometry">
            <Array as="points">
              <mxPoint x="290" y="315" />
              <mxPoint x="239" y="315" />
            </Array>
          </mxGeometry>
        </mxCell>
        <mxCell id="ptNgoOlfAMFUyv-kNt-q-22" style="edgeStyle=orthogonalEdgeStyle;rounded=0;orthogonalLoop=1;jettySize=auto;html=1;" edge="1" parent="WIyWlLk6GJQsqaUBKTNV-1" source="ptNgoOlfAMFUyv-kNt-q-19" target="ptNgoOlfAMFUyv-kNt-q-16">
          <mxGeometry relative="1" as="geometry">
            <Array as="points">
              <mxPoint x="330" y="315" />
              <mxPoint x="387" y="315" />
            </Array>
          </mxGeometry>
        </mxCell>
        <mxCell id="ptNgoOlfAMFUyv-kNt-q-19" value="" style="shape=line;html=1;strokeWidth=6;strokeColor=#ff0000;" vertex="1" parent="WIyWlLk6GJQsqaUBKTNV-1">
          <mxGeometry x="254" y="280" width="120" height="10" as="geometry" />
        </mxCell>
        <mxCell id="ptNgoOlfAMFUyv-kNt-q-27" value="Добавить информацию о поездке" style="rounded=1;whiteSpace=wrap;html=1;" vertex="1" parent="WIyWlLk6GJQsqaUBKTNV-1">
          <mxGeometry x="179" y="820" width="120" height="60" as="geometry" />
        </mxCell>
        <mxCell id="ptNgoOlfAMFUyv-kNt-q-39" style="edgeStyle=orthogonalEdgeStyle;rounded=0;orthogonalLoop=1;jettySize=auto;html=1;" edge="1" parent="WIyWlLk6GJQsqaUBKTNV-1" source="ptNgoOlfAMFUyv-kNt-q-30" target="ptNgoOlfAMFUyv-kNt-q-37">
          <mxGeometry relative="1" as="geometry" />
        </mxCell>
        <mxCell id="ptNgoOlfAMFUyv-kNt-q-30" value="Посмотреть статистику по кнопке" style="rounded=1;whiteSpace=wrap;html=1;" vertex="1" parent="WIyWlLk6GJQsqaUBKTNV-1">
          <mxGeometry x="254" y="1140" width="120" height="60" as="geometry" />
        </mxCell>
        <mxCell id="ptNgoOlfAMFUyv-kNt-q-31" style="edgeStyle=orthogonalEdgeStyle;rounded=0;orthogonalLoop=1;jettySize=auto;html=1;" edge="1" parent="WIyWlLk6GJQsqaUBKTNV-1" source="ptNgoOlfAMFUyv-kNt-q-27" target="ptNgoOlfAMFUyv-kNt-q-6">
          <mxGeometry relative="1" as="geometry">
            <Array as="points">
              <mxPoint x="239" y="910" />
              <mxPoint x="280" y="910" />
            </Array>
          </mxGeometry>
        </mxCell>
        <mxCell id="ptNgoOlfAMFUyv-kNt-q-38" style="edgeStyle=orthogonalEdgeStyle;rounded=0;orthogonalLoop=1;jettySize=auto;html=1;" edge="1" parent="WIyWlLk6GJQsqaUBKTNV-1" source="ptNgoOlfAMFUyv-kNt-q-37" target="s1uLl0sVC5fE9_Em1BIi-69">
          <mxGeometry relative="1" as="geometry" />
        </mxCell>
        <mxCell id="ptNgoOlfAMFUyv-kNt-q-37" value="Сохранить данные по кнопке" style="rounded=1;whiteSpace=wrap;html=1;" vertex="1" parent="WIyWlLk6GJQsqaUBKTNV-1">
          <mxGeometry x="254" y="1230" width="120" height="60" as="geometry" />
        </mxCell>
      </root>
    </mxGraphModel>
  </diagram>
</mxfile>
